<svg width="24" height="24" viewBox="0 0 24 24" fill="none" xmlns="http://www.w3.org/2000/svg">
<path fill-rule="evenodd" clip-rule="evenodd" d="M5.75 8C5.75 5.65279 7.65279 3.75 10 3.75H14C16.3472 3.75 18.25 5.65279 18.25 8V11.0123C16.9867 11.1378 16 12.2037 16 13.5V16.5C16 17.7734 16.9521 18.8245 18.1833 18.9801C17.9746 19.7132 17.3 20.25 16.5 20.25H13.6615C13.4852 20.0944 13.2536 20 13 20H12C11.4477 20 11 20.4477 11 21C11 21.5523 11.4477 22 12 22H13C13.2536 22 13.4852 21.9056 13.6615 21.75H16.5C18.2386 21.75 19.6583 20.3849 19.7457 18.668C20.4953 18.2364 21 17.4271 21 16.5V13.5C21 12.5746 20.4973 11.7667 19.75 11.3345V8C19.75 4.82436 17.1756 2.25 14 2.25H10C6.82436 2.25 4.25 4.82436 4.25 8V11.3345C3.50275 11.7667 3 12.5746 3 13.5V16.5C3 17.8807 4.11929 19 5.5 19C6.88071 19 8 17.8807 8 16.5V13.5C8 12.2037 7.01333 11.1378 5.75 11.0123V8Z" fill="#7596FF"/>
</svg>
